<?xml version="1.0" encoding="UTF-8"?>
<svg id="Layer_2" data-name="Layer 2" xmlns="http://www.w3.org/2000/svg" viewBox="0 0 4560.7865 4087.7819">
  <defs>
    <style>
      .cls-1 {
        fill: #26afe5;
      }
    </style>
  </defs>
  <g id="Layer_1-2" data-name="Layer 1">
    <path class="cls-1" d="M3803.8234,3098.8324c-21.5361-21.5361-56.5431-21.3587-77.7903.4624-218.8164,224.7259-539.1079,350.1763-886.865,302.3425-460.3454-63.3037-821.2605-430.0044-878.3124-891.1781-28.3976-229.5627,18.6056-446.636,119.5721-629.798,1.2202-2.2296-.3766-4.9414-2.9077-4.9414h-723.1715c-1.4615,0-2.7721.9644-3.194,2.3653-48.4192,158.3196-74.4819,326.4014-74.4819,500.5692,0,906.0472,705.0483,1647.4478,1596.4371,1705.4485,519.679,33.818,995.5342-167.857,1330.4874-508.566,21.0957-21.4582,21.0655-55.8648-.2121-77.1425l-399.5618-399.5621Z"/>
    <path class="cls-1" d="M0,1881.5929c0-1.5585.0614-3.1028.1868-4.6562,2.4133-29.8914,29.9584-326.0215,182.626-450.9314,160.8753-131.6253,1367.4402-1023.752,1367.4402-1023.752l435.8884-297.8571c1.6919-1.1561,3.3126-2.3937,4.8725-3.7224C2006.9334,87.1137,2118.0565.065,2347.3171.065h908.1022c.6136,0,1.2271-.0149,1.8403-.036,6.5592-.2252,56.354-.2252,164.997,43.9111,188.7241,76.6692,636.1887,241.313,979.8769,468.0009,325.9676,214.9999,53.3475,404.3785,24.3683,423.3357-1.4969.9792-2.9369,2.0148-4.3335,3.1324-15.7284,12.5859-127.5676,93.9202-283.2853-1.5749-160.6702-98.5323-474.8289-229.7314-502.5924-241.2632-1.2725-.5286-2.5119-1.0979-3.7442-1.7144-20.901-10.4566-223.8976-108.7905-466.2278-108.7905h-292.5006s-197.4379,0-292.5006,65.8126c-95.0627,65.8126-489.9385,343.6882-489.9385,343.6882l-365.6257,270.563s-113.344,76.7814-51.1876,138.9378c62.1564,62.1564,117.0002,7.3125,160.8753-21.9375,43.8751-29.2501,511.876-380.2507,511.876-380.2507l234.0005-168.1878s131.6253-95.0627,292.5006-95.0627h327.183c1.3018,0,2.6015.0427,3.9002.1311,16.4834,1.1224,131.0193,9.9085,239.2929,43.7439,72.0768,22.524,180.2305,64.474,252.6579,93.3676,53.0733,21.1727,103.8761,47.5946,151.6666,78.9176,86.3715,56.6098,218.3919,159.9916,297.6769,229.9031,82.4689,72.719,146.1917,123.0535,102.3752,168.1878-42.8389,44.1273-282.1892,240.4583-379.5126,319.9038-22.9956,18.7714-56.4454,17.1655-77.5387-3.7206-4.5598-4.515-8.8981-8.7188-12.5544-12.1051-1.2392-1.1477-2.4137-2.3347-3.5452-3.5887-47.4114-52.5466-269.2718-329.7394-696.8513-329.7394-397.3132,0-617.0649,240.1114-737.3452,364.407-120.2803,124.2956-325.4069,303.4693-346.1257,396.7191-26.1935,117.8901-453.9561,434.3934-596.4856,537.0891-25.4096,18.3082-31.7024,53.4705-14.2383,79.4675,150.9815,224.75,784.3397,1177.3963,588.8014,1054.3053-221.4666-139.4128-459.4847-238.2337-459.4847-238.2337l-621.5637-248.6255s-87.7502-36.5626-241.313-29.2501c-153.5628,7.3125-307.1256-7.3125-307.1256-7.3125,0,0-343.6882-29.2501-343.6882-409.5008v-941.1026Z"/>
  </g>
</svg>