<?xml version="1.0" encoding="UTF-8"?>
<svg id="Layer_2" data-name="Layer 2" xmlns="http://www.w3.org/2000/svg" xmlns:xlink="http://www.w3.org/1999/xlink" viewBox="0 0 2088.6001 2088.6001">
  <defs>
    <style>
      .cls-1 {
        fill: url(#linear-gradient-2);
      }

      .cls-2 {
        fill: url(#linear-gradient-10);
      }

      .cls-3 {
        fill: #231f20;
      }

      .cls-4 {
        fill: url(#linear-gradient-4);
      }

      .cls-5 {
        fill: url(#linear-gradient-3);
      }

      .cls-6 {
        fill: url(#linear-gradient-5);
      }

      .cls-7 {
        fill: url(#linear-gradient-8);
      }

      .cls-8 {
        fill: url(#linear-gradient-7);
      }

      .cls-9 {
        fill: url(#linear-gradient-9);
      }

      .cls-10 {
        fill: url(#linear-gradient-6);
      }

      .cls-11 {
        fill: url(#linear-gradient);
      }
    </style>
    <linearGradient id="linear-gradient" x1="497.0458" y1="829.9314" x2="267.9319" y2="1226.7684" gradientUnits="userSpaceOnUse">
      <stop offset="0" stop-color="#27b3e8"/>
      <stop offset="1" stop-color="#449acb"/>
    </linearGradient>
    <linearGradient id="linear-gradient-2" x1="361.1863" y1="1688.4089" x2="211.3609" y2="1947.9141" xlink:href="#linear-gradient"/>
    <linearGradient id="linear-gradient-3" x1="394.3093" y1="47.6338" x2="145.6913" y2="478.2528" xlink:href="#linear-gradient"/>
    <linearGradient id="linear-gradient-4" x1="842.7979" y1="693.8578" x2="468.2505" y2="1342.5929" xlink:href="#linear-gradient"/>
    <linearGradient id="linear-gradient-5" x1="1055.0347" y1="789.0394" x2="782.2161" y2="1261.5752" xlink:href="#linear-gradient"/>
    <linearGradient id="linear-gradient-6" x1="1360.4383" y1="722.8519" x2="1016.8794" y2="1317.9134" xlink:href="#linear-gradient"/>
    <linearGradient id="linear-gradient-7" x1="1664.718" y1="658.6106" x2="1252.4989" y2="1372.5949" xlink:href="#linear-gradient"/>
    <linearGradient id="linear-gradient-8" x1="1853.5101" y1="807.2535" x2="1600.1589" y2="1246.0707" xlink:href="#linear-gradient"/>
    <linearGradient id="linear-gradient-9" x1="1889.2831" y1="119.8253" x2="1739.4577" y2="379.3305" xlink:href="#linear-gradient"/>
    <linearGradient id="linear-gradient-10" x1="1962.8936" y1="1575.731" x2="1714.2756" y2="2006.35" xlink:href="#linear-gradient"/>
  </defs>
  <g id="Layer_5" data-name="Layer 5">
    <g id="Layer_6" data-name="Layer 6">
      <path class="cls-3" d="M473.28,751.1501v586.2998c0,55.23-44.77,100-100,100s-100-44.77-100-100v-586.2998c0-55.23,44.77-100,100-100s100,44.77,100,100Z"/>
      <path class="cls-3" d="M1274.8501,547.03v994.54c0,55.23-44.77,100-100,100s-100-44.77-100-100v-994.54c0-55.23,44.77-100,100-100s100,44.77,100,100Z"/>
      <path class="cls-3" d="M1007.6599,673.2v742.2002c0,55.23-44.7698,100-100,100s-100-44.77-100-100v-742.2002c0-55.23,44.77-100,100-100s100,44.77,100,100Z"/>
      <path class="cls-3" d="M1816.6501,707.9202v672.7598c0,55.23-44.77,100-100,100s-100-44.77-100-100v-672.7598c0-55.23,44.7798-100,100-100s100,44.77,100,100Z"/>
      <path class="cls-3" d="M740.47,491.76v1105.0801c0,55.23-44.77,100-100,100s-100-44.77-100-100V491.76c0-55.23,44.77-100,100-100s100,44.77,100,100Z"/>
      <path class="cls-3" d="M1542.04,424.5701v1239.46c0,55.23-44.77,100-100,100s-100-44.77-100-100V424.5701c0-55.23,44.77-100,100-100s100,44.77,100,100Z"/>
      <path class="cls-3" d="M2088.6001,365.9301v149.88c0,55.23-44.78,100-100,100s-100-44.77-100-100v-149.88c0-91.49-74.4402-165.9301-165.9299-165.9301h-149.8801c-55.23,0-100-44.77-100-100S1517.5601,0,1572.79,0h149.8801c49.3499,0,97.2898,9.6901,142.46,28.8,43.5898,18.4399,82.71,44.8101,116.29,78.38,33.5698,33.58,59.9399,72.7,78.3799,116.2799,19.1099,45.1801,28.8,93.1101,28.8,142.4701Z"/>
      <path class="cls-3" d="M2088.6001,1572.79v149.8801c0,49.3499-9.6902,97.2898-28.8,142.46-18.4399,43.5898-44.8101,82.71-78.3799,116.29-33.5801,33.5698-72.7002,59.9399-116.29,78.3799-45.1702,19.1099-93.1101,28.8-142.46,28.8h-149.8801c-55.23,0-100-44.78-100-100s44.77-100,100-100h149.8801c91.4897,0,165.9299-74.4402,165.9299-165.9299v-149.8801c0-55.23,44.77-100,100-100s100,44.77,100,100Z"/>
      <path class="cls-3" d="M615.8101,1988.6001c0,55.22-44.77,100-100,100h-149.88c-49.36,0-97.2899-9.6902-142.4601-28.8-43.5898-18.4399-82.71-44.8101-116.2899-78.3799-33.5699-33.5801-59.9401-72.7002-78.38-116.29-19.11-45.1702-28.8-93.1101-28.8-142.46v-149.8801c0-55.23,44.78-100,100-100s100,44.77,100,100v149.8801c0,91.4897,74.4401,165.9299,165.9301,165.9299h149.88c55.23,0,100,44.77,100,100Z"/>
      <path class="cls-3" d="M615.8101,100c0,55.23-44.77,100-100,100h-149.88c-91.49,0-165.9301,74.4401-165.9301,165.9301v149.88c0,55.23-44.77,100-100,100S0,571.04,0,515.8101v-149.88c0-49.36,9.6901-97.29,28.8-142.4701,18.4399-43.58,44.8101-82.7,78.38-116.2799,33.58-33.5699,72.7001-59.9401,116.2799-78.38C268.6401,9.6901,316.5701,0,365.9301,0h149.88c55.23,0,100,44.78,100,100Z"/>
      <path class="cls-11" d="M373.28,651.1501c55.23,0,100,44.77,100,100v586.2998c0,55.23-44.77,100-100,100s-100-44.77-100-100v-586.2998c0-55.23,44.77-100,100-100Z"/>
      <path class="cls-1" d="M615.8101,1988.6001c0,55.22-44.77,100-100,100h-149.88c-49.36,0-97.2899-9.6902-142.4601-28.8-43.5898-18.4399-82.71-44.8101-116.2899-78.3799-33.5699-33.5801-59.9401-72.7002-78.38-116.29-19.11-45.1702-28.8-93.1101-28.8-142.46v-149.8801c0-55.23,44.78-100,100-100s100,44.77,100,100v149.8801c0,91.4897,74.4401,165.9299,165.9301,165.9299h149.88c55.23,0,100,44.77,100,100Z"/>
      <path class="cls-5" d="M0,515.8101v-149.88c0-49.36,9.6901-97.29,28.8-142.4701,18.4399-43.58,44.8101-82.7,78.38-116.2799,33.58-33.5699,72.7001-59.9401,116.2799-78.38C268.6401,9.6901,316.5701,0,365.9301,0h149.88c55.23,0,100,44.78,100,100s-44.77,100-100,100h-149.88c-91.49,0-165.9301,74.4401-165.9301,165.9301v149.88c0,55.23-44.77,100-100,100S0,571.04,0,515.8101Z"/>
      <path class="cls-4" d="M740.47,491.76v1105.0801c0,55.23-44.77,100-100,100s-100-44.77-100-100V491.76c0-55.23,44.77-100,100-100s100,44.77,100,100Z"/>
      <path class="cls-6" d="M1007.6599,673.2v742.2002c0,55.23-44.7698,100-100,100s-100-44.77-100-100v-742.2002c0-55.23,44.77-100,100-100s100,44.77,100,100Z"/>
      <path class="cls-10" d="M1274.8501,547.03v994.54c0,55.23-44.77,100-100,100s-100-44.77-100-100v-994.54c0-55.23,44.77-100,100-100s100,44.77,100,100Z"/>
      <path class="cls-8" d="M1442.04,1764.03c-55.23,0-100-44.77-100-100V424.5701c0-55.23,44.77-100,100-100s100,44.77,100,100v1239.46c0,55.23-44.77,100-100,100Z"/>
      <path class="cls-7" d="M1716.6501,1480.6799c-55.2202,0-100-44.77-100-100v-672.7598c0-55.23,44.7798-100,100-100s100,44.77,100,100v672.7598c0,55.23-44.77,100-100,100Z"/>
      <path class="cls-9" d="M2088.6001,365.9301v149.88c0,55.23-44.78,100-100,100s-100-44.77-100-100v-149.88c0-91.49-74.4402-165.9301-165.9299-165.9301h-149.8801c-55.23,0-100-44.77-100-100S1517.5601,0,1572.79,0h149.8801c49.3499,0,97.2898,9.6901,142.46,28.8,43.5898,18.4399,82.71,44.8101,116.29,78.38,33.5698,33.58,59.9399,72.7,78.3799,116.2799,19.1099,45.1801,28.8,93.1101,28.8,142.4701Z"/>
      <path class="cls-2" d="M2088.6001,1572.79v149.8801c0,49.3499-9.6902,97.2898-28.8,142.46-18.4399,43.5898-44.8101,82.71-78.3799,116.29-33.5801,33.5698-72.7002,59.9399-116.29,78.3799-45.1702,19.1099-93.1101,28.8-142.46,28.8h-149.8801c-55.23,0-100-44.78-100-100s44.77-100,100-100h149.8801c91.4897,0,165.9299-74.4402,165.9299-165.9299v-149.8801c0-55.23,44.77-100,100-100s100,44.77,100,100Z"/>
    </g>
  </g>
</svg>