<?xml version="1.0" encoding="UTF-8"?>
<svg xmlns="http://www.w3.org/2000/svg" viewBox="0 0 3000 1344">
  <defs>
    <style>
      .cls-1 {
        opacity: .25;
      }

      .cls-1, .cls-2, .cls-3 {
        fill: #bfe2ff;
      }

      .cls-2 {
        opacity: .59;
      }
    </style>
  </defs>
  <g id="Layer_5_xA0_Image">
    <path class="cls-3" d="M3000,0v446s-406.31-21.89-675.71,82.47c-54.33,21.05-102.75,47.97-148.99,77.81-102.43,8.99-359.6,40.12-542.54,135.39-29.2,1.04-53.71,2-70.54,2.8-101.93,4.86-328,.63-589.75,149.57-121.43,69.11-228.93,118.69-309.27,151.99-92.75,5.66-175.02,9.05-241.65,11.52C159.44,1067.26,0,1174.04,0,1174.04V0h3000Z"/>
  </g>
  <g id="Layer_3_xA0_Image">
    <path class="cls-2" d="M1632.76,741.67c-3.31,1.72-6.6,3.46-9.86,5.23-173.73,94.1-274.59,177.41-434.38,245.89-188.23,28.16-371.23,43.84-525.32,53.24,80.34-33.3,187.84-82.88,309.27-151.99,261.75-148.94,487.82-144.71,589.75-149.57,16.83-.8,41.34-1.76,70.54-2.8Z"/>
  </g>
  <g id="Layer_2_xA0_Image">
    <path class="cls-1" d="M2175.3,606.28c-59.86,38.62-116.06,82.13-176.66,124.1-75.86,52.56-158.62,102.71-264.1,137.87-172.16,57.39-361.6,96.96-546.02,124.54,159.79-68.48,260.65-151.79,434.38-245.89,3.26-1.77,6.55-3.51,9.86-5.23,182.94-95.27,440.11-126.4,542.54-135.39Z"/>
  </g>
</svg>