<?xml version="1.0" encoding="UTF-8"?>
<svg xmlns="http://www.w3.org/2000/svg" viewBox="0 0 3000 1344">
  <defs>
    <style>
      .cls-1 {
        fill: #e9f5ff;
      }

      .cls-2 {
        fill: #d6ecff;
      }

      .cls-3 {
        fill: #f8f8f8;
      }

      .cls-4 {
        fill: #bfe2ff;
      }
    </style>
  </defs>
  <g id="Layer_5_xA0_Image">
    <rect class="cls-4" x="0" width="3000" height="1344"/>
  </g>
  <g id="Layer_3_xA0_Image">
    <path class="cls-2" d="M2047.62,729s-383.46,10.62-485.39,15.47c-101.93,4.85-328,.63-589.75,149.57-261.75,148.94-458.7,207.19-458.7,207.19l948.94,38.83,701.39-332.49-116.49-78.57Z"/>
  </g>
  <g id="Layer_2_xA0_Image">
    <path class="cls-1" d="M2219.93,603s-364.04,17.7-597.03,143.9c-232.99,126.2-334.92,232.99-623.73,310.65-288.81,77.66,594.61,31.55,594.61,31.55l800.9-417.1-174.74-69Z"/>
  </g>
  <g id="Layer_1_xA0_Image">
    <path class="cls-3" d="M3000,446s-406.31-21.89-675.71,82.47c-212.69,82.4-334.92,254.83-589.75,339.78-453.65,151.22-1027.22,178.72-1312.99,189.3C159.44,1067.26,0,1174.04,0,1174.04v169.96s3000,0,3000,0V446Z"/>
  </g>
</svg>