<?xml version="1.0" encoding="UTF-8"?>
<svg id="Layer_2" data-name="Layer 2" xmlns="http://www.w3.org/2000/svg" viewBox="0 0 743.6071 743.0628">
  <defs>
    <style>
      .cls-1 {
        fill: #fff;
      }
    </style>
  </defs>
  <g id="Layer_2-2" data-name="Layer 2">
    <path class="cls-1" d="M371.8382,0c-100.9765,0-113.6489.4411-153.3086,2.2447-39.5819,1.8111-66.5998,8.0731-90.2408,17.2611-24.4539,9.4893-45.1979,22.1832-65.8639,42.8417-20.6816,20.6513-33.3853,41.3794-42.9128,65.8076-9.2179,23.6311-15.4923,50.6366-17.2736,90.1739-1.7737,39.6299-2.2386,52.3007-2.2386,153.2024s.4494,113.526,2.2462,153.1559c1.8206,39.5527,8.0871,66.5507,17.2736,90.1739,9.5044,24.4361,22.2078,45.1643,42.8818,65.8152,20.6589,20.6665,41.4025,33.3918,65.8409,42.881,23.6561,9.1876,50.6823,15.4496,90.2563,17.2611,39.6597,1.8029,52.3242,2.2443,153.2931,2.2443s113.6183-.4411,153.2776-2.2447c39.5822-1.8112,66.6312-8.0731,90.2873-17.2611,24.4463-9.4889,45.1593-22.2142,65.8179-42.8807,20.6816-20.651,33.3853-41.379,42.9128-65.8072,9.14-23.6311,15.4144-50.6366,17.2736-90.1739,1.7813-39.6299,2.2462-52.2622,2.2462-153.1638s-.4649-113.5646-2.2462-153.1948c-1.8591-39.5528-8.1335-66.5503-17.2736-90.1735-9.5274-24.4362-22.2312-45.1646-42.9128-65.8156-20.682-20.6665-41.3639-33.3604-65.8409-42.8421-23.7029-9.1877-50.7364-15.4496-90.3182-17.2607C485.3557.4411,472.7298,0,371.7224,0h.1159ZM338.4839,66.9532c9.8997-.0155,20.9454,0,33.3543,0,99.2727,0,111.0387.356,150.2411,2.1362,36.2514,1.6566,55.9261,7.7091,69.0323,12.7945,17.3511,6.734,29.7215,14.784,42.7268,27.7875,13.0133,13.0038,21.069,25.3882,27.8237,42.7261,5.0891,13.0809,11.1542,32.7413,12.8039,68.9658,1.7817,39.1654,2.1691,50.9307,2.1691,150.0831s-.3874,110.9178-2.1691,150.0832c-1.6577,36.2241-7.7148,55.8845-12.8039,68.9654-6.7389,17.3382-14.8104,29.684-27.8237,42.6796-13.0129,13.0038-25.3682,21.0535-42.7268,27.7875-13.0907,5.1088-32.781,11.1458-69.0323,12.8024-39.1944,1.7801-50.9684,2.1672-150.2411,2.1672s-111.0463-.387-150.2411-2.1672c-36.251-1.6717-55.9257-7.7246-69.0399-12.8099-17.351-6.734-29.7449-14.784-42.7578-27.7875-13.0133-13.0035-21.069-25.3569-27.8237-42.703-5.0891-13.0809-11.1541-32.7413-12.8039-68.9654-1.7817-39.1657-2.1381-50.9307-2.1381-150.1451s.3564-110.9178,2.1381-150.0832c1.6577-36.2245,7.7148-55.8845,12.8039-68.9809,6.7389-17.3382,14.8105-29.7226,27.8238-42.7261,13.0129-13.0038,25.4067-21.0535,42.7578-27.803,13.1063-5.1088,32.7889-11.1458,69.0399-12.8103,34.2992-1.5481,47.5915-2.0122,116.8872-2.0901l-.0004.0934ZM570.3062,128.6426c-24.6323,0-44.6173,19.9468-44.6173,44.5682s19.985,44.5841,44.6173,44.5841,44.617-19.9699,44.617-44.5841-19.985-44.5833-44.6173-44.5833l.0003.0151ZM371.8383,180.7344c-105.4462,0-190.9384,85.4291-190.9384,190.797s85.4922,190.7581,190.9384,190.7581,190.9077-85.3901,190.9077-190.7581-85.4691-190.797-190.9153-190.797h.0076ZM371.8383,247.6876c68.4434,0,123.936,55.4434,123.936,123.8438s-55.4926,123.8438-123.936,123.8438-123.9357-55.451-123.9357-123.8438,55.4846-123.8438,123.9357-123.8438h0Z"/>
  </g>
</svg>