<?xml version="1.0" encoding="UTF-8"?>
<svg id="Layer_2" data-name="Layer 2" xmlns="http://www.w3.org/2000/svg" viewBox="0 0 80 80">
  <defs>
    <style>
      .cls-1 {
        fill: #fff;
      }
    </style>
    <filter id="shadow" x="-50%" y="-50%" width="200%" height="200%">
      <feDropShadow dx="3" dy="3" stdDeviation="5" flood-color="rgb(0 0 0 / 15%)" />
    </filter>
  </defs>
  <g id="Layer_2-2" data-name="Layer 2-2">
    <path class="cls-1" filter="url(#shadow)" d="M36.0034,0c-9.7771,0-11.0041.0427-14.8442.2173-3.8325.1754-6.4485.7817-8.7376,1.6713-2.3678.9188-4.3763,2.1479-6.3773,4.1482-2.0025,1.9996-3.2325,4.0066-4.155,6.3718-.8925,2.2881-1.5,4.9029-1.6725,8.7311-.1717,3.8372-.2168,5.064-.2168,14.8339s.0435,10.9922.2175,14.8294c.1763,3.8297.783,6.4438,1.6725,8.7311.9203,2.366,2.1503,4.373,4.152,6.3726,2.0003,2.001,4.0088,3.2332,6.3751,4.152,2.2905.8896,4.9073,1.4959,8.7391,1.6713,3.8401.1746,5.0663.2173,14.8427.2173s11.0011-.0427,14.8411-.2173c3.8326-.1754,6.4516-.7817,8.7421-1.6713,2.367-.9188,4.3726-2.1509,6.3728-4.1519,2.0025-1.9995,3.2325-4.0065,4.155-6.3718.885-2.2881,1.4925-4.9029,1.6725-8.7311.1725-3.8372.2175-5.0603.2175-14.8301s-.045-10.9959-.2175-14.8331c-.18-3.8297-.7875-6.4438-1.6725-8.7311-.9225-2.366-2.1525-4.3731-4.155-6.3726-2.0025-2.001-4.0051-3.2301-6.3751-4.1482-2.295-.8896-4.9126-1.4959-8.7451-1.6713-3.8401-.1746-5.0626-.2173-14.8427-.2173h.0112,0ZM32.7738,6.4828c.9585-.0015,2.028,0,3.2295,0,9.6121,0,10.7514.0345,14.5471.2068,3.5101.1604,5.4151.7464,6.6841,1.2388,1.68.652,2.8778,1.4315,4.137,2.6905,1.26,1.2591,2.04,2.4582,2.694,4.137.4928,1.2666,1.08,3.1702,1.2397,6.6776.1725,3.7922.21,4.9314.21,14.5318s-.0375,10.7396-.21,14.5319c-.1605,3.5074-.747,5.411-1.2397,6.6776-.6525,1.6788-1.434,2.8742-2.694,4.1325-1.26,1.2591-2.4563,2.0385-4.137,2.6905-1.2675.4947-3.174,1.0792-6.6841,1.2396-3.795.1724-4.935.2098-14.5471.2098s-10.7521-.0375-14.5471-.2098c-3.51-.1619-5.415-.7479-6.6848-1.2403-1.68-.652-2.8801-1.4315-4.14-2.6905-1.26-1.2591-2.04-2.4552-2.694-4.1347-.4928-1.2666-1.08-3.1702-1.2397-6.6776-.1725-3.7922-.207-4.9314-.207-14.5378s.0345-10.7396.207-14.5319c.1605-3.5074.747-5.411,1.2397-6.6791.6525-1.6788,1.434-2.8779,2.694-4.137,1.26-1.2591,2.46-2.0385,4.14-2.692,1.269-.4947,3.1748-1.0792,6.6848-1.2404,3.321-.1499,4.6081-.1948,11.3176-.2024v.009s0,0,0,0ZM55.2201,12.4559c-2.385,0-4.3201,1.9314-4.3201,4.3153s1.9351,4.3169,4.3201,4.3169,4.3201-1.9336,4.3201-4.3169-1.9351-4.3168-4.3201-4.3168v.0015ZM36.0034,17.4997c-10.2099,0-18.4877,8.2717-18.4877,18.474s8.2778,18.4702,18.4877,18.4702,18.4847-8.2679,18.4847-18.4702-8.2756-18.474-18.4854-18.474h.0007ZM36.0034,23.9824c6.6271,0,12.0001,5.3683,12.0001,11.9912s-5.3731,11.9912-12.0001,11.9912-12.0001-5.3691-12.0001-11.9912,5.3723-11.9912,12.0001-11.9912h0Z"/>
  </g>
</svg>